<svg width="239" height="191" viewBox="0 0 239 191" fill="none" xmlns="http://www.w3.org/2000/svg">
<path d="M18.5918 2C49.3836 21.1283 90.2556 22.3811 125.332 19.575C148.339 17.7344 172.699 14.0298 194.71 23.0162C209.454 29.0352 234.439 38.936 236.374 57.5517C237.622 69.551 231.203 82.0262 222.425 89.875C210.791 100.277 192.815 100.975 178.057 101.981C163.34 102.984 148.454 102.285 133.874 104.869C127.85 105.936 124.905 107.08 122.567 112.796C121.198 116.142 118.279 121.706 119.986 125.394C121.798 129.307 127.889 129.128 130.678 132.153C141.551 143.947 121.937 163.974 111.26 167.856C103.578 170.65 94.7966 170.597 86.8024 171.974C71.7854 174.558 56.7333 176.556 41.6974 178.979C27.99 181.188 14.8867 183.779 2 188.934" stroke="white" stroke-width="3" stroke-linecap="round"/>
</svg>
