<svg width="17" height="18" viewBox="0 0 17 18" fill="none" xmlns="http://www.w3.org/2000/svg">
<path d="M8.14347 0.00012207C7.30705 0.000122153 6.47121 0.273793 5.7764 0.819709L2.19679 3.63212C0.809774 4.72192 0 6.38713 0 8.15108V14.1726C0 15.7599 1.2868 17.0468 2.87417 17.0468H13.4128C15.0002 17.0468 16.2869 15.7599 16.2869 14.1726V7.22109C16.2869 6.04513 15.7464 4.93312 14.8218 4.20658L10.5105 0.819709C9.81573 0.273792 8.97988 0.000121988 8.14347 0.00012207ZM8.14347 1.91623C8.56168 1.91623 8.98054 2.05307 9.32794 2.32603L13.6392 5.7129C14.1015 6.07617 14.3708 6.63311 14.3708 7.22109V14.1726C14.3708 14.7017 13.9419 15.1307 13.4128 15.1307H2.87417C2.34505 15.1307 1.91611 14.7017 1.91611 14.1726V8.15108C1.91611 6.97511 2.45658 5.86497 3.38126 5.13844L6.959 2.32603C7.3064 2.05307 7.72526 1.91623 8.14347 1.91623ZM8.14347 9.41601C7.00964 9.41601 6.09076 10.3349 6.09076 11.4687C6.09076 12.6025 7.00964 13.5214 8.14347 13.5214C9.2773 13.5214 10.1962 12.6025 10.1962 11.4687C10.1962 10.3349 9.2773 9.41601 8.14347 9.41601Z" fill="white"/>
</svg>
