<svg width="18" height="16" viewBox="0 0 18 16" fill="none" xmlns="http://www.w3.org/2000/svg">
<path d="M8.80823 0C6.29348 0 4.23751 2.05597 4.23751 4.57072C4.23751 7.08548 6.29348 9.14309 8.80823 9.14309C11.323 9.14309 13.379 7.08548 13.379 4.57072C13.379 2.05597 11.323 0 8.80823 0ZM8.80823 1.68421C10.4128 1.68421 11.6947 2.96619 11.6947 4.57072C11.6947 6.17526 10.4128 7.45888 8.80823 7.45888C7.20369 7.45888 5.92172 6.17526 5.92172 4.57072C5.92172 2.96619 7.20369 1.68421 8.80823 1.68421ZM8.80823 9.9046C4.63534 9.9046 1.11444 12.3442 0.0121758 15.6809C-0.0402824 15.8397 0.0801371 16 0.247373 16H1.34441C1.45036 16 1.54505 15.9338 1.58454 15.8355C2.58132 13.3548 5.32139 11.4293 8.80823 11.4293C12.2951 11.4293 15.0351 13.3548 16.0319 15.8355C16.0714 15.9338 16.166 16 16.272 16H17.3674C17.5347 16 17.6567 15.8397 17.6043 15.6809C16.502 12.3442 12.9811 9.9046 8.80823 9.9046Z" fill="white"/>
</svg>
