<svg width="25" height="13" viewBox="0 0 25 13" fill="none" xmlns="http://www.w3.org/2000/svg">
<path d="M24.0272 8.48692C23.6753 8.25871 23.2474 8.12483 22.7919 8.12504C22.4884 8.12494 22.1966 8.18425 21.932 8.29166C21.5349 8.45273 21.1988 8.72048 20.9608 9.05816C20.7226 9.39543 20.583 9.8056 20.5832 10.2422C20.5831 10.5332 20.645 10.813 20.757 11.0665C20.925 11.4472 21.2043 11.7695 21.5566 11.9976C21.9084 12.2259 22.3363 12.3598 22.7919 12.3596C23.0953 12.3596 23.3872 12.3002 23.6518 12.1929C24.0489 12.0319 24.385 11.764 24.6231 11.4264C24.8611 11.0892 25.0008 10.679 25.0006 10.2422C25.0007 9.95143 24.9388 9.67152 24.8267 9.41798C24.6587 9.03736 24.3794 8.71513 24.0272 8.48692Z" fill="white"/>
<path d="M0.000214858 3.4298H0.000107429H0.000214858ZM24.8962 1.71968L23.769 0.220986C23.7166 0.151268 23.65 0.0969973 23.5699 0.0585842H23.5698C23.3872 -0.0289507 23.171 -0.0121641 23.0053 0.102248L14.7555 5.80426C14.6233 5.8953 14.4893 5.95915 14.354 6.00127C14.2191 6.04318 14.0825 6.06336 13.9439 6.06378C13.8052 6.06336 13.6685 6.04318 13.5336 6.00127C13.3985 5.95915 13.2646 5.8953 13.1325 5.80436L13.1312 5.80354L5.66839 0.651658C5.03606 0.213984 4.30286 0.00163555 3.59221 0.00153255C3.58974 0.00153255 3.58566 0.00153255 3.57932 0.00163555L3.58416 0.00153255C2.65092 0.00297451 1.76871 0.351053 1.10641 0.95216L1.10588 0.952674C0.773704 1.25482 0.495785 1.62401 0.301554 2.04686L0.301661 2.04645C0.107429 2.46847 0.000644575 2.9392 0.000214858 3.4297H0.000107429C0.000214858 3.43032 0.000214858 3.43341 0.000214858 3.43753L0 11.835C0 12.1246 0.244938 12.3593 0.546922 12.3593L2.47474 12.3594C2.6188 12.3594 2.75964 12.3035 2.86148 12.2058C2.96343 12.1082 3.02177 11.9731 3.02177 11.8351V3.43516C3.02187 3.38604 3.02671 3.34639 3.03434 3.31117C3.04207 3.27626 3.05271 3.24547 3.06699 3.21364C3.10749 3.1259 3.17679 3.04764 3.27337 2.98791L3.27358 2.98781C3.31999 2.95918 3.37263 2.93601 3.42624 2.92066C3.47941 2.90542 3.53324 2.898 3.58222 2.8979C3.64109 2.89862 3.68879 2.90563 3.73789 2.92045C3.7872 2.9357 3.83984 2.95928 3.90483 3.00356L3.90268 3.00202L11.3665 8.15452C12.1294 8.68251 13.0286 8.95819 13.9319 8.95994V8.96004C13.9359 8.96004 13.9385 8.96004 13.9403 8.96004C13.9404 8.96004 13.9405 8.96014 13.9406 8.96014H13.9427H13.9439H13.9486V8.96004C14.8545 8.95973 15.7567 8.68374 16.522 8.1541L24.7723 2.45158C25.0173 2.28217 25.0728 1.95459 24.8962 1.71968Z" fill="white"/>
<path d="M11.3691 8.15625C11.3684 8.15586 11.3676 8.15508 11.3672 8.15469L11.3691 8.15625Z" fill="white"/>
</svg>
