<svg width="23" height="16" viewBox="0 0 23 16" fill="none" xmlns="http://www.w3.org/2000/svg">
<path d="M12.6904 0.000266065C12.3124 0.00820585 11.9937 0.231786 11.8031 0.452147C11.6126 0.672507 11.4958 0.905011 11.3921 1.15655C11.1849 1.65963 11.0411 2.25761 10.9076 2.95521L9.55732 13.5533C9.49461 13.9883 9.23777 13.9535 9.11252 13.7191L7.24989 6.19369C7.16282 6.02033 7.0641 5.85161 6.89618 5.68425C6.72826 5.51681 6.4418 5.34121 6.10902 5.35193C5.42878 5.37401 5.01052 5.86073 4.72486 6.28673L3.53288 8.76546C3.40322 8.8677 1.5887 8.84554 0.377995 8.84282C-0.00100735 8.85115 -0.000549314 9.27402 -0.000549314 9.27402L-0.00028883 10.2694C-0.00028883 10.2694 -0.00596429 10.6392 0.349882 10.6543L3.76187 10.6616C4.17989 10.6625 4.45401 10.4173 4.61854 10.2297C4.78306 10.0421 4.88808 9.85479 4.99065 9.65815C5.19578 9.26487 5.49422 8.44502 5.67583 8.02414C5.76547 7.70902 5.937 7.4919 6.05791 7.88166L7.55453 14.0396C7.72265 14.502 7.90513 14.9147 8.16996 15.2757C8.43473 15.6366 8.85789 15.9997 9.40692 16C9.78193 16.0002 10.1101 15.7868 10.3065 15.5681C10.5029 15.3493 10.6213 15.1149 10.7277 14.8637C10.9403 14.3612 11.0866 13.7658 11.2225 13.0694L12.5436 2.89794C12.6255 2.36405 12.8172 2.4293 12.8787 2.63006C13.1224 3.5929 13.3523 5.21478 13.5573 6.60574C13.7624 7.99671 13.9594 9.39903 14.2157 10.5132C14.3438 11.0702 14.4804 11.5523 14.6839 11.9752C14.7857 12.1866 14.902 12.3891 15.0928 12.5777C15.2836 12.7662 15.5907 12.9293 15.927 12.9387C16.642 12.9588 17.1205 12.4799 17.1205 12.4799L18.7566 10.6616C18.8336 10.5761 21.4818 10.6239 22.4425 10.6461C22.846 10.6546 22.8566 10.2657 22.8566 10.2657L22.8513 9.28214C22.8513 9.28214 22.8527 8.88094 22.4797 8.87302C21.7879 8.87543 20.2419 8.87653 18.773 8.84519C18.7669 8.84519 18.7607 8.84519 18.7546 8.84519C18.2149 8.84606 17.7024 9.19422 17.4932 9.45879L16.8054 10.3284C16.218 11.0785 15.8051 10.6843 15.7319 10.0032L14.5101 2.39258C14.3681 1.83152 14.2167 1.34268 13.9847 0.915107C13.7526 0.487522 13.3312 -0.0132061 12.6904 0.000266065Z" fill="white"/>
</svg>
