<svg width="18" height="16" viewBox="0 0 18 16" fill="none" xmlns="http://www.w3.org/2000/svg">
<path d="M4.81959 1.95626e-07C3.67405 1.95626e-07 2.74587 0.928192 2.74587 2.07372V4.91987C2.74587 7.43362 4.27517 9.69512 6.60805 10.6314C7.085 10.8228 7.57954 10.9503 8.0808 11.0176V12.9984C8.0808 14.084 6.21278 13.8603 5.61927 14.7692C5.42028 15.074 5.31021 15.4684 5.25548 15.7276C5.22504 15.8717 5.33734 16 5.48465 16H12.3164C12.4637 16 12.576 15.8717 12.5455 15.7276C12.4908 15.4684 12.3823 15.074 12.1834 14.7692C11.5899 13.8603 9.72183 14.084 9.72183 12.9984V11.0176C10.222 10.9502 10.7154 10.8224 11.1914 10.6314C13.5243 9.69512 15.0536 7.43362 15.0536 4.91987V2.07372C15.0536 0.928184 14.1254 0 12.9798 0L4.81959 1.95626e-07ZM16.5055 1.02564C15.8433 1.02628 15.3073 1.56378 15.3084 2.22596L15.3116 4.33974C15.3126 5.00193 15.8497 5.5391 16.5119 5.53846C17.174 5.53781 17.7101 5.00033 17.709 4.33814L17.7058 2.22436C17.7048 1.56218 17.1677 1.02499 16.5055 1.02564ZM1.16093 1.02724C0.520567 1.05832 0.00926847 1.58724 0.00708657 2.23557L0.000678364 4.32372C-0.00156984 4.99296 0.539772 5.53701 1.20901 5.53846C1.87825 5.5399 2.4215 4.99937 2.42376 4.33013L2.43177 2.24038C2.43403 1.57115 1.89268 1.02869 1.22344 1.02724C1.20252 1.0272 1.18159 1.02624 1.16093 1.02724ZM4.81959 1.64102H12.9798C13.219 1.64102 13.4125 1.8345 13.4125 2.07372V4.91987C13.4125 6.76328 12.2916 8.42076 10.5808 9.10737C9.50208 9.54035 8.29734 9.54035 7.21863 9.10737C5.50785 8.42076 4.38689 6.76328 4.38689 4.91987V2.07372C4.38689 1.8345 4.58037 1.64102 4.81959 1.64102Z" fill="white"/>
</svg>
